<svg version="1.1" xmlns="http://www.w3.org/2000/svg" viewBox="0 0 1202 1488.4749891344459" width="1202" height="1488.4749891344459">
  <!-- svg-source:excalidraw -->
  
  <defs>
    <style class="style-fonts">
      @font-face {
        font-family: "Virgil";
        src: url("https://excalidraw.com/Virgil.woff2");
      }
      @font-face {
        font-family: "Cascadia";
        src: url("https://excalidraw.com/Cascadia.woff2");
      }
      @font-face {
        font-family: "Assistant";
        src: url("https://excalidraw.com/Assistant-Regular.woff2");
      }
    </style>
    
  </defs>
  <g stroke-linecap="round" transform="translate(296 319.5) rotate(0 70.5 36)"><path d="M18 0 C48.13 2.47, 80.18 -0.69, 123 0 M18 0 C40.31 1.18, 63.88 1.24, 123 0 M123 0 C134.79 1.16, 139.29 4.03, 141 18 M123 0 C135.86 0.95, 142.44 4.98, 141 18 M141 18 C141.11 25.09, 139.96 33.03, 141 54 M141 18 C140.16 28.94, 141.34 39.65, 141 54 M141 54 C142.2 67.23, 135.12 71.18, 123 72 M141 54 C141.58 64.44, 133.71 73.98, 123 72 M123 72 C79.37 74.57, 41.09 73.86, 18 72 M123 72 C93.81 72.11, 64.37 72.43, 18 72 M18 72 C7.74 70.78, -1.81 67.04, 0 54 M18 72 C6.57 73.33, -1.33 67.81, 0 54 M0 54 C0.86 41, -1.93 29.23, 0 18 M0 54 C-0.01 44.85, -0.45 37.07, 0 18 M0 18 C-1.01 5.91, 5.28 1.69, 18 0 M0 18 C2.07 4.14, 5.46 -1.66, 18 0" stroke="#1e1e1e" stroke-width="2" fill="none"></path></g><g transform="translate(322.8500442504883 343) rotate(0 43.64995574951172 12.5)"><text x="43.64995574951172" y="0" font-family="Virgil, Segoe UI Emoji" font-size="20px" fill="#1e1e1e" text-anchor="middle" style="white-space: pre;" direction="ltr" dominant-baseline="text-before-edge">Sentinel-1</text></g><g stroke-linecap="round" transform="translate(528.25 319.5) rotate(0 70.5 36)"><path d="M18 0 C54.77 -1.47, 88.1 -0.33, 123 0 M18 0 C50.68 0.85, 84.24 1.47, 123 0 M123 0 C133.22 1.47, 142.63 6.92, 141 18 M123 0 C136.02 -0.82, 140.51 8.03, 141 18 M141 18 C141.51 30.94, 141.48 43.55, 141 54 M141 18 C141.39 27.14, 141.93 35.74, 141 54 M141 54 C140.36 66.45, 134.19 73.47, 123 72 M141 54 C140.66 64.78, 135.97 71.15, 123 72 M123 72 C93.81 73.3, 62.67 74.46, 18 72 M123 72 C91.81 70.71, 59.25 71.2, 18 72 M18 72 C6.78 71.01, 1.74 64.38, 0 54 M18 72 C7.08 73.01, 0.52 67.51, 0 54 M0 54 C1.6 43.74, 1.74 37.26, 0 18 M0 54 C0.51 43.88, -0.13 33.99, 0 18 M0 18 C-0.36 4.94, 5.78 -0.61, 18 0 M0 18 C-1.92 5.88, 5.22 0.91, 18 0" stroke="#1e1e1e" stroke-width="2" fill="none"></path></g><g transform="translate(547.3300476074219 343) rotate(0 51.419952392578125 12.5)"><text x="51.419952392578125" y="0" font-family="Virgil, Segoe UI Emoji" font-size="20px" fill="#1e1e1e" text-anchor="middle" style="white-space: pre;" direction="ltr" dominant-baseline="text-before-edge">SentineL-2</text></g><g stroke-linecap="round" transform="translate(760.5 318.5) rotate(0 70.5 36)"><path d="M18 0 C50.36 1.19, 84.48 2.42, 123 0 M18 0 C40.6 -0.41, 61.93 -1.07, 123 0 M123 0 C136.76 1.05, 139.4 6.69, 141 18 M123 0 C135.92 0.29, 141.88 6.2, 141 18 M141 18 C141.44 27.21, 142.51 35.35, 141 54 M141 18 C141.82 27.51, 140.55 37.73, 141 54 M141 54 C140.26 65.71, 134.25 72.91, 123 72 M141 54 C141.93 66.95, 134.61 74.28, 123 72 M123 72 C92.06 69.88, 58.4 70.84, 18 72 M123 72 C86.58 73.38, 52.23 73.14, 18 72 M18 72 C7.31 70.96, 0.43 66.08, 0 54 M18 72 C7.93 70.47, 2.1 67.29, 0 54 M0 54 C0.97 44.01, -0.31 34.49, 0 18 M0 54 C-0.11 43.01, 0.14 33.35, 0 18 M0 18 C0.79 6.84, 4 1.32, 18 0 M0 18 C1.89 5.88, 6.89 -1.53, 18 0" stroke="#1e1e1e" stroke-width="2" fill="none"></path></g><g transform="translate(783.2500457763672 342) rotate(0 47.74995422363281 12.5)"><text x="47.74995422363281" y="0" font-family="Virgil, Segoe UI Emoji" font-size="20px" fill="#1e1e1e" text-anchor="middle" style="white-space: pre;" direction="ltr" dominant-baseline="text-before-edge">Sentinel-3</text></g><g stroke-linecap="round" transform="translate(528.25 485) rotate(0 70.5 36)"><path d="M18 0 C50.73 -0.41, 83.47 0.24, 123 0 M18 0 C53.44 0.35, 90.55 -0.17, 123 0 M123 0 C134.29 -0.52, 141.12 4.89, 141 18 M123 0 C136.06 0.49, 141.18 5.83, 141 18 M141 18 C142.68 28.05, 139.06 38.76, 141 54 M141 18 C140.5 28.67, 141.22 37.67, 141 54 M141 54 C142.74 66.73, 133.85 71.53, 123 72 M141 54 C140.13 67.56, 133.94 71.75, 123 72 M123 72 C93.32 71.69, 62.82 71.8, 18 72 M123 72 C91.68 71.39, 61.3 72.5, 18 72 M18 72 C7.02 73.3, 1.8 65.56, 0 54 M18 72 C7.11 74.02, -2.03 64.26, 0 54 M0 54 C1.89 45.24, 1.82 40.04, 0 18 M0 54 C0.85 45.56, -0.73 38.93, 0 18 M0 18 C-0.63 7.25, 4.86 0.63, 18 0 M0 18 C1.89 8.23, 4.54 2.3, 18 0" stroke="#1e1e1e" stroke-width="2" fill="none"></path></g><g transform="translate(563.5700302124023 508.5) rotate(0 35.179969787597656 12.5)"><text x="35.179969787597656" y="0" font-family="Virgil, Segoe UI Emoji" font-size="20px" fill="#1e1e1e" text-anchor="middle" style="white-space: pre;" direction="ltr" dominant-baseline="text-before-edge">Master</text></g><g stroke-linecap="round" transform="translate(745.5 619) rotate(0 70.5 36)"><path d="M18 0 C46.84 -0.7, 72.86 -0.91, 123 0 M18 0 C46.52 0.54, 75.81 0.25, 123 0 M123 0 C135.92 0.43, 141.15 5.85, 141 18 M123 0 C135.17 -0.4, 140.34 8, 141 18 M141 18 C140.27 26.23, 139.13 35.2, 141 54 M141 18 C142 31.24, 140.55 43.52, 141 54 M141 54 C140.24 67.35, 134.07 71.78, 123 72 M141 54 C140.81 66.8, 133.4 73.09, 123 72 M123 72 C89.24 73.02, 55.07 72.02, 18 72 M123 72 C95.58 73.46, 68.02 72.59, 18 72 M18 72 C6.97 73.76, -1.77 64.49, 0 54 M18 72 C3.73 72.25, 2.1 68.22, 0 54 M0 54 C-2.19 44.41, -0.8 39.01, 0 18 M0 54 C0.04 47.31, -0.21 39.68, 0 18 M0 18 C1.64 7.94, 4.73 2, 18 0 M0 18 C-0.78 4.88, 7.28 -0.77, 18 0" stroke="#1e1e1e" stroke-width="2" fill="none"></path></g><g transform="translate(778.6900329589844 642.5) rotate(0 37.309967041015625 12.5)"><text x="37.309967041015625" y="0" font-family="Virgil, Segoe UI Emoji" font-size="20px" fill="#1e1e1e" text-anchor="middle" style="white-space: pre;" direction="ltr" dominant-baseline="text-before-edge">Slave-2</text></g><g stroke-linecap="round" transform="translate(314.75 619) rotate(0 70.5 36)"><path d="M18 0 C45.26 1.98, 71.99 -0.23, 123 0 M18 0 C47.22 0.8, 75.59 0.51, 123 0 M123 0 C135.15 -0.35, 140.42 7.74, 141 18 M123 0 C133.83 -2.15, 139.41 5.55, 141 18 M141 18 C141.88 28.19, 139.68 38.7, 141 54 M141 18 C140.41 30.79, 140.33 42.12, 141 54 M141 54 C140.83 66.69, 133.61 72.95, 123 72 M141 54 C141.48 67.23, 135.61 71.93, 123 72 M123 72 C86.92 73.26, 53.74 72.89, 18 72 M123 72 C85.15 72.65, 45.44 71.02, 18 72 M18 72 C4.03 72.22, 1.83 67.93, 0 54 M18 72 C4.26 74.14, 0.61 63.87, 0 54 M0 54 C-1.85 43.93, -0.18 37.22, 0 18 M0 54 C1.03 41.92, -0.43 28.9, 0 18 M0 18 C-0.68 5.02, 7.11 -0.67, 18 0 M0 18 C-1.62 3.75, 7.58 2, 18 0" stroke="#1e1e1e" stroke-width="2" fill="none"></path></g><g transform="translate(352.3500289916992 642.5) rotate(0 32.89997100830078 12.5)"><text x="32.89997100830078" y="0" font-family="Virgil, Segoe UI Emoji" font-size="20px" fill="#1e1e1e" text-anchor="middle" style="white-space: pre;" direction="ltr" dominant-baseline="text-before-edge">Slave-1</text></g><g stroke-linecap="round"><g transform="translate(384.7016982877692 408) rotate(0 66.78231238564888 38.214432696601534)"><path d="M0.28 -0.43 C22.4 12.1, 111.2 63.36, 133.45 76.27 M-1.03 -1.71 C20.86 11.53, 110.07 64.94, 132.44 77.73" stroke="#1e1e1e" stroke-width="2" fill="none"></path></g><g transform="translate(384.7016982877692 408) rotate(0 66.78231238564888 38.214432696601534)"><path d="M107.85 73.21 C116.07 74.59, 125.44 76.79, 132.44 77.73 M107.85 73.21 C117.48 74.24, 125.28 77.06, 132.44 77.73" stroke="#1e1e1e" stroke-width="2" fill="none"></path></g><g transform="translate(384.7016982877692 408) rotate(0 66.78231238564888 38.214432696601534)"><path d="M116.51 58.46 C121.72 65.2, 127.96 72.75, 132.44 77.73 M116.51 58.46 C123.22 64.72, 127.98 72.71, 132.44 77.73" stroke="#1e1e1e" stroke-width="2" fill="none"></path></g></g><mask></mask><g stroke-linecap="round"><g transform="translate(601.720281367966 405) rotate(0 -0.5385151206628507 32)"><path d="M1.12 -1.01 C1.04 9.35, 0.19 52.01, -0.11 62.92 M0.25 1.07 C0.07 11.48, -0.31 53.68, -0.55 63.89" stroke="#1e1e1e" stroke-width="2" fill="none"></path></g><g transform="translate(601.720281367966 405) rotate(0 -0.5385151206628507 32)"><path d="M-8.74 40.27 C-7.59 49.58, -5 56.42, -0.55 63.89 M-8.74 40.27 C-6.66 48.5, -2.64 56.69, -0.55 63.89" stroke="#1e1e1e" stroke-width="2" fill="none"></path></g><g transform="translate(601.720281367966 405) rotate(0 -0.5385151206628507 32)"><path d="M8.36 40.54 C3.88 49.92, 0.84 56.67, -0.55 63.89 M8.36 40.54 C4.66 48.81, 2.9 56.91, -0.55 63.89" stroke="#1e1e1e" stroke-width="2" fill="none"></path></g></g><mask></mask><g stroke-linecap="round"><g transform="translate(817.5722858747995 405) rotate(0 -71.09384358314765 43.56305732144432)"><path d="M0.16 -0.15 C-23.37 14.21, -118.13 71.37, -141.76 85.97 M-1.22 -1.27 C-24.81 13.21, -119.01 71.87, -142.49 86.9" stroke="#1e1e1e" stroke-width="2" fill="none"></path></g><g transform="translate(817.5722858747995 405) rotate(0 -71.09384358314765 43.56305732144432)"><path d="M-127.17 67.15 C-131.27 72.81, -136.77 77.98, -142.49 86.9 M-127.17 67.15 C-131.92 72.76, -136.7 79.17, -142.49 86.9" stroke="#1e1e1e" stroke-width="2" fill="none"></path></g><g transform="translate(817.5722858747995 405) rotate(0 -71.09384358314765 43.56305732144432)"><path d="M-118.05 81.61 C-124.41 83.68, -132.19 85.23, -142.49 86.9 M-118.05 81.61 C-125.85 82.51, -133.62 84.18, -142.49 86.9" stroke="#1e1e1e" stroke-width="2" fill="none"></path></g></g><mask></mask><g stroke-linecap="round"><g transform="translate(737.9302215993489 614.8706887153936) rotate(0 -34.399211034444534 -27.253746915115244)"><path d="M0.97 1.13 C-10.63 -7.61, -56.78 -44.01, -68.6 -53.47 M0.02 0.67 C-11.81 -8.29, -58.16 -45.79, -69.44 -55.05" stroke="#1e1e1e" stroke-width="2" fill="none"></path></g><g transform="translate(737.9302215993489 614.8706887153936) rotate(0 -34.399211034444534 -27.253746915115244)"><path d="M-45.82 -46.86 C-52.95 -49.48, -62.18 -54.91, -69.44 -55.05 M-45.82 -46.86 C-50.28 -48.35, -56.22 -49.5, -69.44 -55.05" stroke="#1e1e1e" stroke-width="2" fill="none"></path></g><g transform="translate(737.9302215993489 614.8706887153936) rotate(0 -34.399211034444534 -27.253746915115244)"><path d="M-56.61 -33.59 C-59.48 -41.4, -64.56 -51.93, -69.44 -55.05 M-56.61 -33.59 C-58.77 -37.82, -62.48 -41.72, -69.44 -55.05" stroke="#1e1e1e" stroke-width="2" fill="none"></path></g></g><mask></mask><g stroke-linecap="round"><g transform="translate(453 619.5) rotate(0 39.125 -29)"><path d="M-1.16 0.46 C11.99 -9.13, 64.61 -47.68, 77.77 -57.54 M0.44 -0.34 C13.49 -10.3, 63.85 -49.85, 76.56 -59.43" stroke="#1e1e1e" stroke-width="2" fill="none"></path></g><g transform="translate(453 619.5) rotate(0 39.125 -29)"><path d="M63.18 -38.31 C66.68 -43.31, 69.41 -47.62, 76.56 -59.43 M63.18 -38.31 C66.4 -43.1, 69.7 -49.02, 76.56 -59.43" stroke="#1e1e1e" stroke-width="2" fill="none"></path></g><g transform="translate(453 619.5) rotate(0 39.125 -29)"><path d="M52.74 -51.85 C58.38 -53.98, 63.24 -55.53, 76.56 -59.43 M52.74 -51.85 C58.38 -53.47, 64.16 -56.17, 76.56 -59.43" stroke="#1e1e1e" stroke-width="2" fill="none"></path></g></g><mask></mask><g stroke-linecap="round" transform="translate(492 84) rotate(0 104 50.5)"><path d="M25.25 0 C77.41 -0.17, 129.56 -0.98, 182.75 0 M25.25 0 C73.07 -0.16, 119.99 -0.64, 182.75 0 M182.75 0 C199.03 -1.61, 209.84 10.13, 208 25.25 M182.75 0 C201.13 -0.28, 206.81 8.38, 208 25.25 M208 25.25 C206.35 35.17, 207.88 48.12, 208 75.75 M208 25.25 C208.63 43.02, 207.47 62.77, 208 75.75 M208 75.75 C206.29 91.98, 197.63 100.24, 182.75 101 M208 75.75 C208.56 92.38, 199.59 103.03, 182.75 101 M182.75 101 C126.7 101.25, 66.02 100.97, 25.25 101 M182.75 101 C141.08 99.14, 99.95 100, 25.25 101 M25.25 101 C7.09 102.63, 0.84 91.43, 0 75.75 M25.25 101 C10.32 102.5, 0.8 92.52, 0 75.75 M0 75.75 C1.19 57.23, -0.8 37.3, 0 25.25 M0 75.75 C1.12 60.88, 0.19 47.78, 0 25.25 M0 25.25 C0.13 10.41, 8.06 -0.16, 25.25 0 M0 25.25 C0.07 9.54, 8.41 2.1, 25.25 0" stroke="#1e1e1e" stroke-width="2" fill="none"></path></g><g transform="translate(568.9500274658203 122) rotate(0 27.049972534179688 12.5)"><text x="27.049972534179688" y="0" font-family="Virgil, Segoe UI Emoji" font-size="20px" fill="#1e1e1e" text-anchor="middle" style="white-space: pre;" direction="ltr" dominant-baseline="text-before-edge">Client</text></g><g stroke-linecap="round"><g transform="translate(584.9869047906457 198) rotate(0 -105.46498336707396 56)"><path d="M-0.42 1.04 C-35.4 19.94, -175.63 94.19, -210.84 112.71 M1.56 0.54 C-33.48 19.16, -176.61 92.13, -211.73 110.96" stroke="#1e1e1e" stroke-width="2" fill="none"></path></g><g transform="translate(584.9869047906457 198) rotate(0 -105.46498336707396 56)"><path d="M-194.85 92.52 C-196.92 96.64, -201.14 99.25, -211.73 110.96 M-194.85 92.52 C-199.97 97.58, -205.88 103.92, -211.73 110.96" stroke="#1e1e1e" stroke-width="2" fill="none"></path></g><g transform="translate(584.9869047906457 198) rotate(0 -105.46498336707396 56)"><path d="M-186.95 107.69 C-190.64 108.47, -196.59 107.78, -211.73 110.96 M-186.95 107.69 C-194.68 107.95, -203.06 109.57, -211.73 110.96" stroke="#1e1e1e" stroke-width="2" fill="none"></path></g></g><mask></mask><g stroke-linecap="round"><g transform="translate(601.207845102706 198) rotate(0 -2.3054518611897947 55.00000000000003)"><path d="M0.44 0.87 C-0.4 19.15, -4.72 92.21, -5.57 110.43 M-0.79 0.29 C-1.22 18.12, -2.58 89.97, -3.36 108.53" stroke="#1e1e1e" stroke-width="2" fill="none"></path></g><g transform="translate(601.207845102706 198) rotate(0 -2.3054518611897947 55.00000000000003)"><path d="M-11.22 84.8 C-7.6 89.25, -6.33 96.81, -3.36 108.53 M-11.22 84.8 C-7.9 91.56, -6.87 98.95, -3.36 108.53" stroke="#1e1e1e" stroke-width="2" fill="none"></path></g><g transform="translate(601.207845102706 198) rotate(0 -2.3054518611897947 55.00000000000003)"><path d="M5.87 85.3 C5.12 89.68, 2.02 97.12, -3.36 108.53 M5.87 85.3 C3.76 91.93, -0.64 99.16, -3.36 108.53" stroke="#1e1e1e" stroke-width="2" fill="none"></path></g></g><mask></mask><g stroke-linecap="round"><g transform="translate(614.2344135644512 199) rotate(0 104.02593664549579 53)"><path d="M-0.23 0.43 C34.52 18.02, 173.36 87.3, 207.94 104.81 M-1.8 -0.39 C32.82 17.37, 171.69 87.9, 206.94 105.73" stroke="#1e1e1e" stroke-width="2" fill="none"></path></g><g transform="translate(614.2344135644512 199) rotate(0 104.02593664549579 53)"><path d="M182.12 102.73 C189.22 103.37, 192.92 102.99, 206.94 105.73 M182.12 102.73 C188.16 102.88, 195.39 104.61, 206.94 105.73" stroke="#1e1e1e" stroke-width="2" fill="none"></path></g><g transform="translate(614.2344135644512 199) rotate(0 104.02593664549579 53)"><path d="M189.85 87.48 C194.86 92.04, 196.57 95.59, 206.94 105.73 M189.85 87.48 C193.92 91.52, 199.14 97.22, 206.94 105.73" stroke="#1e1e1e" stroke-width="2" fill="none"></path></g></g><mask></mask><g stroke-linecap="round" transform="translate(260 48) rotate(0 341 344)"><path d="M32 0 C264.96 2.05, 499.96 2.77, 650 0 M650 0 C671.69 -1.15, 681.38 10.7, 682 32 M682 32 C679.66 165.37, 680.55 298.89, 682 656 M682 656 C680.86 677.02, 670.17 688.41, 650 688 M650 688 C511.63 688.31, 374.67 687.72, 32 688 M32 688 C8.76 687.45, 1.67 676.24, 0 656 M0 656 C2.25 432.37, 2.2 208.37, 0 32 M0 32 C-1.32 8.86, 12.1 -0.15, 32 0" stroke="#1e1e1e" stroke-width="2.5" fill="none" stroke-dasharray="1.5 8"></path></g><g transform="translate(510 10) rotate(0 71.50996398925781 12.5)"><text x="0" y="0" font-family="Virgil, Segoe UI Emoji" font-size="20px" fill="#1e1e1e" text-anchor="start" style="white-space: pre;" direction="ltr" dominant-baseline="text-before-edge">NORMAL CASE</text></g><g stroke-linecap="round" transform="translate(39.78006589785832 1109.7203459637562) rotate(0 60.163097199340996 30.721581548599715)"><path d="M15.36 0 C47.67 0.89, 84.53 0.01, 104.97 0 M15.36 0 C36.63 -0.47, 59.02 0.3, 104.97 0 M104.97 0 C113.51 0.75, 119.74 5.68, 120.33 15.36 M104.97 0 C116.98 -1.52, 120 4.37, 120.33 15.36 M120.33 15.36 C121.2 22.68, 120.47 34.65, 120.33 46.08 M120.33 15.36 C120.09 26.65, 119.17 38.47, 120.33 46.08 M120.33 46.08 C119.32 57.64, 115.99 62, 104.97 61.44 M120.33 46.08 C120.89 57.29, 114.07 59.71, 104.97 61.44 M104.97 61.44 C78.99 61.67, 54.91 60.28, 15.36 61.44 M104.97 61.44 C82.39 60.96, 61.73 60.79, 15.36 61.44 M15.36 61.44 C4.55 63.11, -0.62 56.35, 0 46.08 M15.36 61.44 C6.11 61.57, -0.19 56.47, 0 46.08 M0 46.08 C0.78 36.55, 0.15 28.64, 0 15.36 M0 46.08 C-0.63 37.95, 0.72 27.89, 0 15.36 M0 15.36 C1.06 5.42, 6.94 0.53, 15.36 0 M0 15.36 C1.69 4.01, 3.13 -0.3, 15.36 0" stroke="#1e1e1e" stroke-width="2" fill="none"></path></g><g transform="translate(62.7097570303049 1129.7747116968699) rotate(0 37.23340606689453 10.667215815485974)"><text x="37.23340606689453" y="0" font-family="Virgil, Segoe UI Emoji" font-size="17.067545304777592px" fill="#1e1e1e" text-anchor="middle" style="white-space: pre;" direction="ltr" dominant-baseline="text-before-edge">Sentinel-1</text></g><g stroke-linecap="round" transform="translate(237.97693574958816 1109.7203459637562) rotate(0 60.163097199340996 30.721581548599715)"><path d="M15.36 0 C43.12 -1.42, 72.27 -0.21, 104.97 0 M15.36 0 C33.04 0.52, 52.11 0.43, 104.97 0 M104.97 0 C116.75 -1.32, 120.04 4.47, 120.33 15.36 M104.97 0 C115.02 2.08, 121.99 5.81, 120.33 15.36 M120.33 15.36 C122.01 20.97, 120.73 28.59, 120.33 46.08 M120.33 15.36 C119.52 23.56, 120.41 30.73, 120.33 46.08 M120.33 46.08 C120.82 57.16, 114.22 59.94, 104.97 61.44 M120.33 46.08 C120.01 54.33, 116.54 61.05, 104.97 61.44 M104.97 61.44 C78.22 61.84, 51.92 58.97, 15.36 61.44 M104.97 61.44 C74.71 62.44, 44.71 61.62, 15.36 61.44 M15.36 61.44 C5.98 61.55, -0.17 56.45, 0 46.08 M15.36 61.44 C5.47 59.34, 1.18 56.9, 0 46.08 M0 46.08 C-0.15 38.07, 1.07 26.37, 0 15.36 M0 46.08 C0.24 34.5, 0.62 22.88, 0 15.36 M0 15.36 C1.47 4.15, 3.39 -0.26, 15.36 0 M0 15.36 C-2.26 4.98, 3.86 0.34, 15.36 0" stroke="#1e1e1e" stroke-width="2" fill="none"></path></g><g transform="translate(254.2788116354527 1129.7747116968699) rotate(0 43.86122131347656 10.667215815485974)"><text x="43.86122131347656" y="0" font-family="Virgil, Segoe UI Emoji" font-size="17.067545304777592px" fill="#1e1e1e" text-anchor="middle" style="white-space: pre;" direction="ltr" dominant-baseline="text-before-edge">SentineL-2</text></g><g stroke-linecap="round" transform="translate(436.173805601318 1108.8669686985172) rotate(0 60.163097199340996 30.721581548599715)"><path d="M15.36 0 C33.18 1.63, 54.41 -1.52, 104.97 0 M15.36 0 C46.37 -0.91, 75.7 -0.58, 104.97 0 M104.97 0 C115.04 1.81, 121.77 5.72, 120.33 15.36 M104.97 0 C113.31 -0.15, 121.89 7.08, 120.33 15.36 M120.33 15.36 C119.3 20.93, 119.29 29.47, 120.33 46.08 M120.33 15.36 C120.69 27.02, 119.95 37.08, 120.33 46.08 M120.33 46.08 C120.05 54.59, 116.36 61.1, 104.97 61.44 M120.33 46.08 C120 57.72, 113.28 60.12, 104.97 61.44 M104.97 61.44 C73.62 61.04, 41.26 60.1, 15.36 61.44 M104.97 61.44 C71.04 61.51, 36.16 61.52, 15.36 61.44 M15.36 61.44 C5.43 59.61, 1.03 56.82, 0 46.08 M15.36 61.44 C5.3 61.29, 2.23 56.12, 0 46.08 M0 46.08 C1.48 36.53, -0.74 24.27, 0 15.36 M0 46.08 C0.46 35.92, -1.15 26.59, 0 15.36 M0 15.36 C-1.97 5, 4.02 0.3, 15.36 0 M0 15.36 C2.28 7.14, 5.18 -0.84, 15.36 0" stroke="#1e1e1e" stroke-width="2" fill="none"></path></g><g transform="translate(455.6061899100341 1128.9213344316308) rotate(0 40.730712890625 10.667215815485974)"><text x="40.730712890625" y="0" font-family="Virgil, Segoe UI Emoji" font-size="17.067545304777592px" fill="#1e1e1e" text-anchor="middle" style="white-space: pre;" direction="ltr" dominant-baseline="text-before-edge">Sentinel-3</text></g><g stroke-linecap="round" transform="translate(242.24382207578265 1257.7813014827018) rotate(0 60.163097199340996 30.721581548599715)"><path d="M15.36 0 C49.49 0.17, 82.68 2.3, 104.97 0 M15.36 0 C36.25 1.2, 58.02 0.59, 104.97 0 M104.97 0 C113.56 -0.13, 121.68 6.82, 120.33 15.36 M104.97 0 C113.96 0.49, 120.16 3.87, 120.33 15.36 M120.33 15.36 C121.47 22.31, 120.71 28.19, 120.33 46.08 M120.33 15.36 C120.04 25, 120.75 36.21, 120.33 46.08 M120.33 46.08 C120.04 57.54, 113.53 60.29, 104.97 61.44 M120.33 46.08 C121.65 54.19, 113.22 62.24, 104.97 61.44 M104.97 61.44 C78.07 60.57, 47.87 62.05, 15.36 61.44 M104.97 61.44 C77.76 60.58, 50.76 61.75, 15.36 61.44 M15.36 61.44 C5.27 61.31, 1.94 56.15, 0 46.08 M15.36 61.44 C6.78 62.65, -0.93 58.21, 0 46.08 M0 46.08 C0.39 35.8, 0.61 23.35, 0 15.36 M0 46.08 C-0.72 38.3, -0.28 30.78, 0 15.36 M0 15.36 C1.98 6.88, 5.17 -0.73, 15.36 0 M0 15.36 C0.26 3.28, 5.91 1.81, 15.36 0" stroke="#1e1e1e" stroke-width="2" fill="none"></path></g><g transform="translate(272.3984048708269 1277.8356672158154) rotate(0 30.008514404296875 10.667215815485974)"><text x="30.008514404296875" y="0" font-family="Virgil, Segoe UI Emoji" font-size="17.067545304777592px" fill="#1e1e1e" text-anchor="middle" style="white-space: pre;" direction="ltr" dominant-baseline="text-before-edge">Master</text></g><g stroke-linecap="round" transform="translate(423.3731466227348 1365.3068369028006) rotate(0 60.163097199340996 30.721581548599715)"><path d="M15.36 0 C38.28 -0.98, 63.19 -0.85, 104.97 0 M15.36 0 C49.52 -0.33, 86.01 0.58, 104.97 0 M104.97 0 C114.13 0.43, 120.18 4.03, 120.33 15.36 M104.97 0 C112.92 -1.26, 119.17 6.63, 120.33 15.36 M120.33 15.36 C121.25 24.79, 118.9 35.92, 120.33 46.08 M120.33 15.36 C120.36 22.52, 119.67 27.89, 120.33 46.08 M120.33 46.08 C121.48 54.47, 113.48 62.13, 104.97 61.44 M120.33 46.08 C120.76 56.74, 114.55 63.36, 104.97 61.44 M104.97 61.44 C80.95 61.66, 56.84 62.14, 15.36 61.44 M104.97 61.44 C86.37 61.6, 68.58 61.58, 15.36 61.44 M15.36 61.44 C6.56 62.49, -0.81 57.96, 0 46.08 M15.36 61.44 C7.28 60.78, 1.21 56.67, 0 46.08 M0 46.08 C-1.05 32.34, -0.34 20.11, 0 15.36 M0 46.08 C1.16 37.93, 0.19 27.65, 0 15.36 M0 15.36 C0.23 3.52, 5.81 1.57, 15.36 0 M0 15.36 C1.53 5.58, 5.65 2.26, 15.36 0" stroke="#1e1e1e" stroke-width="2" fill="none"></path></g><g transform="translate(451.710834886529 1385.3612026359142) rotate(0 31.825408935546875 10.667215815485974)"><text x="31.825408935546875" y="0" font-family="Virgil, Segoe UI Emoji" font-size="17.067545304777592px" fill="#1e1e1e" text-anchor="middle" style="white-space: pre;" direction="ltr" dominant-baseline="text-before-edge">Slave-2</text></g><g stroke-linecap="round" transform="translate(55.780889621087226 1365.3068369028006) rotate(0 60.163097199340996 30.721581548599715)"><path d="M15.36 0 C42.76 1.52, 67.14 -1.57, 104.97 0 M15.36 0 C41.1 -0.55, 67.86 -1.31, 104.97 0 M104.97 0 C113.22 -1.1, 119.32 6.43, 120.33 15.36 M104.97 0 C116.11 0.64, 120.89 6.09, 120.33 15.36 M120.33 15.36 C118.36 24.22, 119.75 30.47, 120.33 46.08 M120.33 15.36 C120.64 25.51, 119.21 37.87, 120.33 46.08 M120.33 46.08 C120.7 56.69, 114.63 63.11, 104.97 61.44 M120.33 46.08 C119.62 56.35, 116.2 61.57, 104.97 61.44 M104.97 61.44 C77 62.61, 53.2 61.73, 15.36 61.44 M104.97 61.44 C79.41 61.89, 52 62.18, 15.36 61.44 M15.36 61.44 C7 60.87, 1.06 56.62, 0 46.08 M15.36 61.44 C7.21 62.05, 1.69 55.21, 0 46.08 M0 46.08 C-0.08 38.43, 0.34 34.96, 0 15.36 M0 46.08 C0.11 33.37, 0.34 23.04, 0 15.36 M0 15.36 C1.33 5.52, 5.58 1.97, 15.36 0 M0 15.36 C1.72 6.48, 7.02 -1.08, 15.36 0" stroke="#1e1e1e" stroke-width="2" fill="none"></path></g><g transform="translate(87.88031189367052 1385.3612026359142) rotate(0 28.063674926757812 10.667215815485974)"><text x="28.063674926757812" y="0" font-family="Virgil, Segoe UI Emoji" font-size="17.067545304777592px" fill="#1e1e1e" text-anchor="middle" style="white-space: pre;" direction="ltr" dominant-baseline="text-before-edge">Slave-1</text></g><g stroke-linecap="round"><g transform="translate(113.56471501836177 1185.244233937397) rotate(0 60.14777773799682 35.509622324225916)"><path d="M-0.99 -0.08 C19.05 11.87, 101 60.15, 121.11 72.04 M0.69 -1.17 C20.57 10.43, 100.95 58.14, 120.59 70.45" stroke="#1e1e1e" stroke-width="2" fill="none"></path></g><g transform="translate(113.56471501836177 1185.244233937397) rotate(0 60.14777773799682 35.509622324225916)"><path d="M96.07 65.57 C105.08 68.95, 116.04 68.33, 120.59 70.45 M96.07 65.57 C102.95 66.72, 111.32 69.5, 120.59 70.45" stroke="#1e1e1e" stroke-width="2" fill="none"></path></g><g transform="translate(113.56471501836177 1185.244233937397) rotate(0 60.14777773799682 35.509622324225916)"><path d="M104.95 50.95 C110.7 59.7, 118.35 64.52, 120.59 70.45 M104.95 50.95 C108.97 56.75, 114.48 64.22, 120.59 70.45" stroke="#1e1e1e" stroke-width="2" fill="none"></path></g></g><mask></mask><g stroke-linecap="round"><g transform="translate(301.91691065355985 1182.6841021416806) rotate(0 0.3940041733478665 30.7215815485996)"><path d="M0.81 1.02 C1 11.32, 0.16 51.74, 0.14 61.7 M-0.22 0.51 C0.45 10.43, 2.49 49.5, 2.51 59.71" stroke="#1e1e1e" stroke-width="2" fill="none"></path></g><g transform="translate(301.91691065355985 1182.6841021416806) rotate(0 0.3940041733478665 30.7215815485996)"><path d="M-6.75 36.49 C-3.05 40.4, -2.31 46.39, 2.51 59.71 M-6.75 36.49 C-5.21 42.9, -2.04 48.22, 2.51 59.71" stroke="#1e1e1e" stroke-width="2" fill="none"></path></g><g transform="translate(301.91691065355985 1182.6841021416806) rotate(0 0.3940041733478665 30.7215815485996)"><path d="M10.34 35.97 C10.32 40.11, 7.34 46.21, 2.51 59.71 M10.34 35.97 C7.68 42.41, 6.65 47.86, 2.51 59.71" stroke="#1e1e1e" stroke-width="2" fill="none"></path></g></g><mask></mask><g stroke-linecap="round"><g transform="translate(488.0944365093155 1182.6841021416803) rotate(0 -60.14464648282478 39.46698594684074)"><path d="M-0.65 0.26 C-20.85 13.13, -100.24 65.28, -120.38 78.28 M1.21 -0.66 C-19.22 12.89, -101.3 66.16, -121.37 79.48" stroke="#1e1e1e" stroke-width="2" fill="none"></path></g><g transform="translate(488.0944365093155 1182.6841021416803) rotate(0 -60.14464648282478 39.46698594684074)"><path d="M-106.41 59.45 C-111.32 66.59, -118.34 72.12, -121.37 79.48 M-106.41 59.45 C-109.79 64.73, -113.6 69.78, -121.37 79.48" stroke="#1e1e1e" stroke-width="2" fill="none"></path></g><g transform="translate(488.0944365093155 1182.6841021416803) rotate(0 -60.14464648282478 39.46698594684074)"><path d="M-97.04 73.75 C-105.51 75.58, -115.98 75.85, -121.37 79.48 M-97.04 73.75 C-102.64 75.59, -108.75 77.14, -121.37 79.48" stroke="#1e1e1e" stroke-width="2" fill="none"></path></g></g><mask></mask><g stroke-linecap="round"><g transform="translate(420.3594061794752 1367.8345315296276) rotate(0 -28.201376519381142 -21.99573937244952)"><path d="M-0.09 -0.65 C-9.58 -8.14, -48.11 -37.56, -57.59 -44.65 M-1.59 1.62 C-10.68 -5.74, -46.09 -35.67, -55.51 -43.46" stroke="#1e1e1e" stroke-width="2" fill="none"></path></g><g transform="translate(420.3594061794752 1367.8345315296276) rotate(0 -28.201376519381142 -21.99573937244952)"><path d="M-32 -34.94 C-38.89 -39.04, -44.68 -40.16, -55.51 -43.46 M-32 -34.94 C-40.39 -37.57, -49.72 -41.86, -55.51 -43.46" stroke="#1e1e1e" stroke-width="2" fill="none"></path></g><g transform="translate(420.3594061794752 1367.8345315296276) rotate(0 -28.201376519381142 -21.99573937244952)"><path d="M-42.98 -21.83 C-47.19 -29.14, -50.28 -33.48, -55.51 -43.46 M-42.98 -21.83 C-47.4 -29.28, -52.72 -38.37, -55.51 -43.46" stroke="#1e1e1e" stroke-width="2" fill="none"></path></g></g><mask></mask><g stroke-linecap="round" transform="translate(207.0420098846787 908.75) rotate(0 88.75123558484347 43.095551894563414)"><path d="M21.55 0 C49.85 1.46, 76.08 1.17, 155.95 0 M21.55 0 C67.38 0.15, 114.07 0.84, 155.95 0 M155.95 0 C170.03 1.21, 175.83 6.03, 177.5 21.55 M155.95 0 C171.64 -2.13, 175.52 7.98, 177.5 21.55 M177.5 21.55 C179.25 34.67, 177.61 49.88, 177.5 64.64 M177.5 21.55 C177.62 33.79, 177.98 48.11, 177.5 64.64 M177.5 64.64 C177.66 78.87, 172.26 86.02, 155.95 86.19 M177.5 64.64 C179.16 80.22, 169.39 88.08, 155.95 86.19 M155.95 86.19 C103.31 88.72, 50.59 88.37, 21.55 86.19 M155.95 86.19 C121.17 85.96, 87.79 86.17, 21.55 86.19 M21.55 86.19 C9.17 87.95, 0.05 78.28, 0 64.64 M21.55 86.19 C7.44 84.35, 0.79 80.82, 0 64.64 M0 64.64 C1.88 50.35, 1.1 34.72, 0 21.55 M0 64.64 C-0.09 54.39, -0.6 42.37, 0 21.55 M0 21.55 C-1.23 8.15, 6.61 -0.74, 21.55 0 M0 21.55 C-1.65 7.42, 8.53 0.46, 21.55 0" stroke="#1e1e1e" stroke-width="2" fill="none"></path></g><g transform="translate(272.7196218122956 941.1783360790773) rotate(0 23.073623657226562 10.667215815485974)"><text x="23.073623657226562" y="0" font-family="Virgil, Segoe UI Emoji" font-size="17.067545304777592px" fill="#1e1e1e" text-anchor="middle" style="white-space: pre;" direction="ltr" dominant-baseline="text-before-edge">Client</text></g><g stroke-linecap="round"><g transform="translate(286.394920397948 1006.0350082372324) rotate(0 -90.00141908425752 47.7891268533773)"><path d="M0.29 0.5 C-29.88 16.23, -150.52 79, -180.6 94.67 M-1.01 -0.28 C-30.83 15.54, -148.19 79.81, -178.19 95.74" stroke="#1e1e1e" stroke-width="2" fill="none"></path></g><g transform="translate(286.394920397948 1006.0350082372324) rotate(0 -90.00141908425752 47.7891268533773)"><path d="M-161.59 77.05 C-166.33 82.44, -174.31 89.49, -178.19 95.74 M-161.59 77.05 C-165.17 81.61, -169.41 84.42, -178.19 95.74" stroke="#1e1e1e" stroke-width="2" fill="none"></path></g><g transform="translate(286.394920397948 1006.0350082372324) rotate(0 -90.00141908425752 47.7891268533773)"><path d="M-153.46 92.1 C-161 92.4, -171.73 94.35, -178.19 95.74 M-153.46 92.1 C-158.86 93.44, -164.83 93.03, -178.19 95.74" stroke="#1e1e1e" stroke-width="2" fill="none"></path></g></g><mask></mask><g stroke-linecap="round"><g transform="translate(300.2375020810573 1006.0350082372324) rotate(0 -1.9674202044419644 46.93574958813838)"><path d="M-0.59 -0.9 C-1.33 14.48, -3.66 77.07, -4.1 92.83 M1.3 1.24 C0.37 16.69, -4.31 78.22, -5.14 93.82" stroke="#1e1e1e" stroke-width="2" fill="none"></path></g><g transform="translate(300.2375020810573 1006.0350082372324) rotate(0 -1.9674202044419644 46.93574958813838)"><path d="M-12.13 69.82 C-11.27 77.37, -9.22 86.59, -5.14 93.82 M-12.13 69.82 C-11.02 75.99, -7.63 82.43, -5.14 93.82" stroke="#1e1e1e" stroke-width="2" fill="none"></path></g><g transform="translate(300.2375020810573 1006.0350082372324) rotate(0 -1.9674202044419644 46.93574958813838)"><path d="M4.94 70.94 C0.26 78.04, -3.24 86.9, -5.14 93.82 M4.94 70.94 C1.21 76.9, -0.22 83.02, -5.14 93.82" stroke="#1e1e1e" stroke-width="2" fill="none"></path></g></g><mask></mask><g stroke-linecap="round"><g transform="translate(311.3540794503883 1006.8883855024712) rotate(0 88.77336932844617 45.228995057660654)"><path d="M-0.17 -1.04 C29.64 14.15, 148.65 74.88, 178.24 90.25 M-1.71 1.03 C28.05 16.49, 147.95 76.98, 177.66 91.68" stroke="#1e1e1e" stroke-width="2" fill="none"></path></g><g transform="translate(311.3540794503883 1006.8883855024712) rotate(0 88.77336932844617 45.228995057660654)"><path d="M152.82 88.81 C157.29 90.72, 164.91 90, 177.66 91.68 M152.82 88.81 C162.33 89.06, 169.85 91.37, 177.66 91.68" stroke="#1e1e1e" stroke-width="2" fill="none"></path></g><g transform="translate(311.3540794503883 1006.8883855024712) rotate(0 88.77336932844617 45.228995057660654)"><path d="M160.48 73.52 C162.91 79.25, 168.61 82.36, 177.66 91.68 M160.48 73.52 C167.1 79.24, 171.86 87.07, 177.66 91.68" stroke="#1e1e1e" stroke-width="2" fill="none"></path></g></g><mask></mask><g stroke-linecap="round" transform="translate(10 888.75) rotate(0 591 293)"><path d="M32 0 C351.68 -2.7, 672.13 -3.26, 1150 0 M1150 0 C1170.18 1.15, 1180.14 8.94, 1182 32 M1182 32 C1182.16 207.27, 1182.15 381.22, 1182 554 M1182 554 C1182.86 575.44, 1171.17 586.13, 1150 586 M1150 586 C797.59 588.36, 444.72 589.08, 32 586 M32 586 C10.49 587.44, 1.05 574.52, 0 554 M0 554 C-1.54 354.76, -1.23 155.49, 0 32 M0 32 C1.47 9.7, 8.93 -0.26, 32 0" stroke="#1e1e1e" stroke-width="2.5" fill="none" stroke-dasharray="1.5 8"></path></g><g transform="translate(397.6300964355469 837.75) rotate(0 203.36990356445312 12.5)"><text x="0" y="0" font-family="Virgil, Segoe UI Emoji" font-size="20px" fill="#1e1e1e" text-anchor="start" style="white-space: pre;" direction="ltr" dominant-baseline="text-before-edge">MASTER DOWN, SWING TO SLAVE CASE</text></g><g stroke-linecap="round"><g transform="translate(116.58401976935738 1355.066309719934) rotate(0 57.60296540362435 -29.868204283360797)"><path d="M0.2 1.17 C5.12 -8.16, 9.17 -45.73, 28.48 -55.98 C47.79 -66.24, 101.7 -59.56, 116.06 -60.36 M-1.16 0.73 C3.65 -8.96, 7.77 -47.91, 27.26 -57.93 C46.74 -67.94, 101.19 -58.98, 115.74 -59.38" stroke="#1e1e1e" stroke-width="2" fill="none"></path></g><g transform="translate(116.58401976935738 1355.066309719934) rotate(0 57.60296540362435 -29.868204283360797)"><path d="M91.75 -52.35 C98.78 -54.77, 102.49 -53.95, 115.74 -59.38 M91.75 -52.35 C98.45 -54.08, 102.88 -55.1, 115.74 -59.38" stroke="#1e1e1e" stroke-width="2" fill="none"></path></g><g transform="translate(116.58401976935738 1355.066309719934) rotate(0 57.60296540362435 -29.868204283360797)"><path d="M92.85 -69.42 C99.64 -68.21, 103.11 -63.78, 115.74 -59.38 M92.85 -69.42 C99.19 -66.93, 103.36 -63.72, 115.74 -59.38" stroke="#1e1e1e" stroke-width="2" fill="none"></path></g></g><mask></mask><g stroke-linecap="round"><g transform="translate(273.6054365733114 1328.611614497529) rotate(0 -43.52224052718287 32.42833607907744)"><path d="M0.66 0.43 C-1.73 7.21, -0.96 29.61, -15.41 40.32 C-29.86 51.03, -74.15 60.79, -86.05 64.69 M-0.45 -0.39 C-2.38 6.58, 1.13 30.48, -13.18 41.53 C-27.48 52.58, -74.08 62.13, -86.29 65.92" stroke="#1e1e1e" stroke-width="2" fill="none"></path></g><g transform="translate(273.6054365733114 1328.611614497529) rotate(0 -43.52224052718287 32.42833607907744)"><path d="M-65.74 51.68 C-69.39 53.29, -75.51 59.46, -86.29 65.92 M-65.74 51.68 C-70.68 54.96, -78.07 58.89, -86.29 65.92" stroke="#1e1e1e" stroke-width="2" fill="none"></path></g><g transform="translate(273.6054365733114 1328.611614497529) rotate(0 -43.52224052718287 32.42833607907744)"><path d="M-61.4 68.22 C-65.92 66.36, -72.96 69.05, -86.29 65.92 M-61.4 68.22 C-67.61 66.73, -76.24 65.93, -86.29 65.92" stroke="#1e1e1e" stroke-width="2" fill="none"></path></g></g><mask></mask><g stroke-linecap="round" transform="translate(648.640032948929 1114.7203459637562) rotate(0 60.163097199340996 30.721581548599715)"><path d="M15.36 0 C47.37 1.01, 77.66 0.85, 104.97 0 M15.36 0 C42.42 -0.46, 69.08 -1.58, 104.97 0 M104.97 0 C113.64 -0.13, 121.47 6.03, 120.33 15.36 M104.97 0 C114.13 -0.84, 122.06 3.41, 120.33 15.36 M120.33 15.36 C119.62 23.73, 121.01 31.18, 120.33 46.08 M120.33 15.36 C120.7 25.7, 121.16 37.22, 120.33 46.08 M120.33 46.08 C118.91 54.51, 116.96 62.88, 104.97 61.44 M120.33 46.08 C122.02 54.24, 114.24 63.56, 104.97 61.44 M104.97 61.44 C69.62 60.89, 39.25 63.71, 15.36 61.44 M104.97 61.44 C82.7 60.78, 58.92 60.69, 15.36 61.44 M15.36 61.44 C4.1 60.59, 0.58 56.77, 0 46.08 M15.36 61.44 C4.54 62.15, -1.72 57.14, 0 46.08 M0 46.08 C-1.06 37.81, -0.16 28.98, 0 15.36 M0 46.08 C-0.59 34.64, 0.4 24.98, 0 15.36 M0 15.36 C-0.44 6.74, 4.07 -0.38, 15.36 0 M0 15.36 C-1.19 6.26, 3.85 -2.02, 15.36 0" stroke="#1e1e1e" stroke-width="2" fill="none"></path></g><g transform="translate(671.5697240813756 1134.7747116968699) rotate(0 37.23340606689453 10.667215815485974)"><text x="37.23340606689453" y="0" font-family="Virgil, Segoe UI Emoji" font-size="17.067545304777592px" fill="#1e1e1e" text-anchor="middle" style="white-space: pre;" direction="ltr" dominant-baseline="text-before-edge">Sentinel-1</text></g><g stroke-linecap="round" transform="translate(846.8369028006593 1114.7203459637562) rotate(0 60.163097199340996 30.721581548599715)"><path d="M15.36 0 C50.81 0.47, 87.94 -1.06, 104.97 0 M15.36 0 C44.66 0.61, 76.1 1.14, 104.97 0 M104.97 0 C114.27 -0.73, 121.84 3.63, 120.33 15.36 M104.97 0 C114.56 -1.75, 120.5 4.58, 120.33 15.36 M120.33 15.36 C121.52 26.57, 120.32 34, 120.33 46.08 M120.33 15.36 C119.78 22.15, 121.37 31.48, 120.33 46.08 M120.33 46.08 C121.8 54.51, 114.37 63.29, 104.97 61.44 M120.33 46.08 C122.04 55.74, 116.4 59.39, 104.97 61.44 M104.97 61.44 C81.66 62.2, 60.35 62.79, 15.36 61.44 M104.97 61.44 C83.76 60.32, 63.86 60.98, 15.36 61.44 M15.36 61.44 C4.62 62.06, -1.49 57.03, 0 46.08 M15.36 61.44 C4.15 60.17, 0.54 54.9, 0 46.08 M0 46.08 C1.04 38.73, 0.53 27.98, 0 15.36 M0 46.08 C-0.4 39.85, -0.71 31.8, 0 15.36 M0 15.36 C-1.03 6.11, 4.01 -1.76, 15.36 0 M0 15.36 C0.41 3.33, 5.14 1.74, 15.36 0" stroke="#1e1e1e" stroke-width="2" fill="none"></path></g><g transform="translate(863.1387786865239 1134.7747116968699) rotate(0 43.86122131347656 10.667215815485974)"><text x="43.86122131347656" y="0" font-family="Virgil, Segoe UI Emoji" font-size="17.067545304777592px" fill="#1e1e1e" text-anchor="middle" style="white-space: pre;" direction="ltr" dominant-baseline="text-before-edge">SentineL-2</text></g><g stroke-linecap="round" transform="translate(1045.0337726523885 1113.8669686985172) rotate(0 60.163097199340996 30.721581548599715)"><path d="M15.36 0 C48.57 -1.24, 78.83 -1.44, 104.97 0 M15.36 0 C41.19 -0.78, 68.72 -1.15, 104.97 0 M104.97 0 C114.64 -1.52, 120.48 4.65, 120.33 15.36 M104.97 0 C115.23 1.05, 119.32 6.33, 120.33 15.36 M120.33 15.36 C119.32 28.65, 120.68 38.41, 120.33 46.08 M120.33 15.36 C121.33 20.88, 120.18 29.14, 120.33 46.08 M120.33 46.08 C121.82 55.81, 116.24 59.66, 104.97 61.44 M120.33 46.08 C119.16 57.92, 117.28 60.33, 104.97 61.44 M104.97 61.44 C76.92 59.73, 50.09 60.66, 15.36 61.44 M104.97 61.44 C81.66 61.95, 58.12 62, 15.36 61.44 M15.36 61.44 C4.27 60.34, 0.47 55.09, 0 46.08 M15.36 61.44 C4.71 61.06, -1.46 57.46, 0 46.08 M0 46.08 C-1.49 36.04, 0.65 23.16, 0 15.36 M0 46.08 C-0.36 34.87, -0.39 21.79, 0 15.36 M0 15.36 C0.36 3.56, 5.14 1.51, 15.36 0 M0 15.36 C0.33 5.76, 7.38 0.21, 15.36 0" stroke="#1e1e1e" stroke-width="2" fill="none"></path></g><g transform="translate(1064.4661569611048 1133.921334431631) rotate(0 40.730712890625 10.667215815485974)"><text x="40.730712890625" y="0" font-family="Virgil, Segoe UI Emoji" font-size="17.067545304777592px" fill="#1e1e1e" text-anchor="middle" style="white-space: pre;" direction="ltr" dominant-baseline="text-before-edge">Sentinel-3</text></g><g stroke-linecap="round" transform="translate(851.1037891268536 1262.7813014827018) rotate(0 60.163097199340996 37.5)"><path d="M18.75 0 C37.82 1.79, 58.07 -0.29, 101.58 0 M18.75 0 C40.28 -0.15, 62.45 0.38, 101.58 0 M101.58 0 C114.1 0.92, 119.45 7.3, 120.33 18.75 M101.58 0 C116.33 -0.17, 120.49 5.11, 120.33 18.75 M120.33 18.75 C118.58 33.74, 121.84 46.69, 120.33 56.25 M120.33 18.75 C120.91 26.35, 120.69 33.57, 120.33 56.25 M120.33 56.25 C119.31 70.14, 115.88 74.03, 101.58 75 M120.33 56.25 C120.27 68.81, 114.7 73.41, 101.58 75 M101.58 75 C83.97 75.15, 68.52 74.08, 18.75 75 M101.58 75 C73.74 74.74, 46.99 74.68, 18.75 75 M18.75 75 C5.89 74.67, -1.27 69.74, 0 56.25 M18.75 75 C7.76 75.55, -0.89 67.12, 0 56.25 M0 56.25 C1.48 41.71, -0.52 28.24, 0 18.75 M0 56.25 C0.39 42.36, 0.22 30.79, 0 18.75 M0 18.75 C0.29 6.81, 8.22 0.18, 18.75 0 M0 18.75 C-1.18 7.15, 5.13 0.99, 18.75 0" stroke="#1e1e1e" stroke-width="2" fill="none"></path></g><g transform="translate(875.5603433574447 1268.2796540362438) rotate(0 35.70654296875 32.00164744645804)"><text x="35.70654296875" y="0" font-family="Virgil, Segoe UI Emoji" font-size="17.067545304777592px" fill="#1e1e1e" text-anchor="middle" style="white-space: pre;" direction="ltr" dominant-baseline="text-before-edge">Slave-1</text><text x="35.70654296875" y="21.33443163097199" font-family="Virgil, Segoe UI Emoji" font-size="17.067545304777592px" fill="#1e1e1e" text-anchor="middle" style="white-space: pre;" direction="ltr" dominant-baseline="text-before-edge">as</text><text x="35.70654296875" y="42.66886326194398" font-family="Virgil, Segoe UI Emoji" font-size="17.067545304777592px" fill="#1e1e1e" text-anchor="middle" style="white-space: pre;" direction="ltr" dominant-baseline="text-before-edge">MASTER</text></g><g stroke-linecap="round" transform="translate(1032.2331136738057 1370.3068369028006) rotate(0 60.163097199340996 30.721581548599715)"><path d="M15.36 0 C46.62 1.93, 77.86 -0.15, 104.97 0 M15.36 0 C35.43 0.67, 55.04 0.74, 104.97 0 M104.97 0 C117.17 -0.15, 120.47 4.13, 120.33 15.36 M104.97 0 C116.42 0.43, 118.7 3.03, 120.33 15.36 M120.33 15.36 C118.74 26.43, 122.39 40.67, 120.33 46.08 M120.33 15.36 C119.98 24.49, 121.39 31.74, 120.33 46.08 M120.33 46.08 C120.28 56.37, 115.75 60.06, 104.97 61.44 M120.33 46.08 C118.08 54.55, 114.03 60.46, 104.97 61.44 M104.97 61.44 C76.12 59.73, 46.76 60.37, 15.36 61.44 M104.97 61.44 C82.86 60.72, 60.48 61.38, 15.36 61.44 M15.36 61.44 C6.44 61.93, -0.77 54.91, 0 46.08 M15.36 61.44 C6.49 62.28, -0.51 58.19, 0 46.08 M0 46.08 C1.05 37.38, -1.7 31.25, 0 15.36 M0 46.08 C0.14 39.54, 0.98 32.53, 0 15.36 M0 15.36 C-1.02 5.9, 4.14 0.86, 15.36 0 M0 15.36 C-1.96 6.7, 2.99 0, 15.36 0" stroke="#1e1e1e" stroke-width="2" fill="none"></path></g><g transform="translate(1060.5708019376002 1390.3612026359142) rotate(0 31.825408935546875 10.667215815485974)"><text x="31.825408935546875" y="0" font-family="Virgil, Segoe UI Emoji" font-size="17.067545304777592px" fill="#1e1e1e" text-anchor="middle" style="white-space: pre;" direction="ltr" dominant-baseline="text-before-edge">Slave-2</text></g><g stroke-linecap="round" transform="translate(664.6408566721582 1370.3068369028006) rotate(0 60.163097199340996 30.721581548599715)"><path d="M15.36 0 C47.49 0.41, 82.2 0.27, 104.97 0 M15.36 0 C47.33 -0.55, 77.42 -0.97, 104.97 0 M104.97 0 C116.26 0.37, 118.91 3.3, 120.33 15.36 M104.97 0 C117.22 1.66, 122.02 3.04, 120.33 15.36 M120.33 15.36 C120.1 24.32, 118.82 30.2, 120.33 46.08 M120.33 15.36 C120.58 26.74, 120.87 37.38, 120.33 46.08 M120.33 46.08 C118.37 54.78, 114.18 60.59, 104.97 61.44 M120.33 46.08 C120.99 56.84, 114.63 62.15, 104.97 61.44 M104.97 61.44 C83.66 61.53, 63.34 60.7, 15.36 61.44 M104.97 61.44 C80.23 62.13, 53.79 61.18, 15.36 61.44 M15.36 61.44 C6.31 62.17, -0.44 57.94, 0 46.08 M15.36 61.44 C3.91 61.01, -1.19 57.46, 0 46.08 M0 46.08 C-1.29 38.59, 1.78 31.34, 0 15.36 M0 46.08 C-0.81 36.4, -0.79 26.36, 0 15.36 M0 15.36 C-1.7 6.5, 3.27 0, 15.36 0 M0 15.36 C-0.26 4.51, 6.2 2.17, 15.36 0" stroke="#1e1e1e" stroke-width="2" fill="none"></path></g><g transform="translate(689.6239840839016 1376.0284184514003) rotate(0 35.179969787597656 25)"><text x="35.179969787597656" y="0" font-family="Virgil, Segoe UI Emoji" font-size="20px" fill="#1e1e1e" text-anchor="middle" style="white-space: pre;" direction="ltr" dominant-baseline="text-before-edge">Master</text><text x="35.179969787597656" y="25" font-family="Virgil, Segoe UI Emoji" font-size="20px" fill="#1e1e1e" text-anchor="middle" style="white-space: pre;" direction="ltr" dominant-baseline="text-before-edge">Down</text></g><g stroke-linecap="round"><g transform="translate(722.4246820694327 1190.244233937397) rotate(0 60.14777773799676 35.509622324225916)"><path d="M0.01 0.55 C19.96 12.54, 99.53 59.92, 119.77 71.65 M-1.44 -0.21 C18.29 11.46, 98.09 57.79, 118.55 69.86" stroke="#1e1e1e" stroke-width="2" fill="none"></path></g><g transform="translate(722.4246820694327 1190.244233937397) rotate(0 60.14777773799676 35.509622324225916)"><path d="M93.95 65.38 C102.42 65.88, 110.13 70.1, 118.55 69.86 M93.95 65.38 C101.68 67, 107.63 67.22, 118.55 69.86" stroke="#1e1e1e" stroke-width="2" fill="none"></path></g><g transform="translate(722.4246820694327 1190.244233937397) rotate(0 60.14777773799676 35.509622324225916)"><path d="M102.58 50.62 C108.37 55.66, 113.41 64.42, 118.55 69.86 M102.58 50.62 C107.79 56.51, 111.22 61.04, 118.55 69.86" stroke="#1e1e1e" stroke-width="2" fill="none"></path></g></g><mask></mask><g stroke-linecap="round"><g transform="translate(910.7768777046306 1187.6841021416806) rotate(0 0.3940041733478665 30.7215815485996)"><path d="M-0.53 0.63 C-0.2 10.77, 1.73 51.32, 1.97 61.35 M1.4 -0.08 C1.67 10.2, 1.84 52.52, 1.64 62.84" stroke="#1e1e1e" stroke-width="2" fill="none"></path></g><g transform="translate(910.7768777046306 1187.6841021416806) rotate(0 0.3940041733478665 30.7215815485996)"><path d="M-6.78 39.3 C-3.09 48.39, -1.76 53.66, 1.64 62.84 M-6.78 39.3 C-5.26 44.28, -1.56 51.81, 1.64 62.84" stroke="#1e1e1e" stroke-width="2" fill="none"></path></g><g transform="translate(910.7768777046306 1187.6841021416806) rotate(0 0.3940041733478665 30.7215815485996)"><path d="M10.32 39.4 C8.87 48.38, 5.05 53.62, 1.64 62.84 M10.32 39.4 C7.56 44.38, 6.97 51.89, 1.64 62.84" stroke="#1e1e1e" stroke-width="2" fill="none"></path></g></g><mask></mask><g stroke-linecap="round"><g transform="translate(1096.9544035603867 1187.6841021416803) rotate(0 -60.14464648282478 39.46698594684074)"><path d="M1.18 -0.09 C-18.77 12.86, -100.06 65.13, -120.2 78.34 M0.34 -1.18 C-19.71 11.86, -101.04 65.94, -121.11 79.57" stroke="#1e1e1e" stroke-width="2" fill="none"></path></g><g transform="translate(1096.9544035603867 1187.6841021416803) rotate(0 -60.14464648282478 39.46698594684074)"><path d="M-106.36 59.38 C-110.18 64.84, -114.8 70.93, -121.11 79.57 M-106.36 59.38 C-110.32 66.4, -115.17 71.21, -121.11 79.57" stroke="#1e1e1e" stroke-width="2" fill="none"></path></g><g transform="translate(1096.9544035603867 1187.6841021416803) rotate(0 -60.14464648282478 39.46698594684074)"><path d="M-96.83 73.58 C-103.17 75.5, -110.23 77.95, -121.11 79.57 M-96.83 73.58 C-103.73 75.99, -111.61 76.27, -121.11 79.57" stroke="#1e1e1e" stroke-width="2" fill="none"></path></g></g><mask></mask><g stroke-linecap="round"><g transform="translate(1026.719373230546 1375.3345315296276) rotate(0 -25.70137651938103 -18.24573937244952)"><path d="M0.09 -0.59 C-8.57 -6.62, -42.04 -30.1, -50.77 -36.27 M-1.33 1.71 C-10.19 -4.7, -43.3 -31.85, -51.38 -38.27" stroke="#1e1e1e" stroke-width="2" fill="none"></path></g><g transform="translate(1026.719373230546 1375.3345315296276) rotate(0 -25.70137651938103 -18.24573937244952)"><path d="M-27.73 -30.16 C-38.13 -32.32, -46.19 -38.02, -51.38 -38.27 M-27.73 -30.16 C-32.02 -32.59, -38.12 -32.46, -51.38 -38.27" stroke="#1e1e1e" stroke-width="2" fill="none"></path></g><g transform="translate(1026.719373230546 1375.3345315296276) rotate(0 -25.70137651938103 -18.24573937244952)"><path d="M-38.48 -16.86 C-44.59 -24.32, -48.37 -35.32, -51.38 -38.27 M-38.48 -16.86 C-40.63 -22.15, -44.49 -24.81, -51.38 -38.27" stroke="#1e1e1e" stroke-width="2" fill="none"></path></g></g><mask></mask><g stroke-linecap="round" transform="translate(815.9019769357494 913.75) rotate(0 88.75123558484347 43.095551894563414)"><path d="M21.55 0 C63.21 -2.13, 102.31 1.04, 155.95 0 M21.55 0 C71.13 2.14, 122.3 0.96, 155.95 0 M155.95 0 C171.36 -1.79, 176.49 8.58, 177.5 21.55 M155.95 0 C172.4 -1.12, 177.45 7.24, 177.5 21.55 M177.5 21.55 C175.66 34.62, 176.35 50.32, 177.5 64.64 M177.5 21.55 C176.65 35.8, 176.97 48.78, 177.5 64.64 M177.5 64.64 C177.97 77.78, 169.96 85.86, 155.95 86.19 M177.5 64.64 C176.04 80.14, 171.83 86.75, 155.95 86.19 M155.95 86.19 C121.55 86.55, 87.32 85.94, 21.55 86.19 M155.95 86.19 C117.64 85.98, 80.61 86.08, 21.55 86.19 M21.55 86.19 C7.2 87.7, 0.29 79.57, 0 64.64 M21.55 86.19 C9.44 86.4, -1.18 79.91, 0 64.64 M0 64.64 C1.19 51.96, -0.18 42.77, 0 21.55 M0 64.64 C-0.9 53.37, 0.63 41.39, 0 21.55 M0 21.55 C1.61 6.03, 8.42 -1.72, 21.55 0 M0 21.55 C1.5 5.55, 8.61 -1.61, 21.55 0" stroke="#1e1e1e" stroke-width="2" fill="none"></path></g><g transform="translate(881.5795888633663 946.1783360790773) rotate(0 23.073623657226562 10.667215815485974)"><text x="23.073623657226562" y="0" font-family="Virgil, Segoe UI Emoji" font-size="17.067545304777592px" fill="#1e1e1e" text-anchor="middle" style="white-space: pre;" direction="ltr" dominant-baseline="text-before-edge">Client</text></g><g stroke-linecap="round"><g transform="translate(895.254887449019 1011.0350082372324) rotate(0 -90.00141908425735 47.7891268533773)"><path d="M1.05 0.86 C-28.66 16.79, -148.86 78.52, -179.12 94.49 M0.15 0.27 C-29.57 16.41, -149.33 79.68, -179.61 95.46" stroke="#1e1e1e" stroke-width="2" fill="none"></path></g><g transform="translate(895.254887449019 1011.0350082372324) rotate(0 -90.00141908425735 47.7891268533773)"><path d="M-162.79 76.96 C-165.37 82.82, -172.47 84.74, -179.61 95.46 M-162.79 76.96 C-168.73 83.28, -176.35 92.12, -179.61 95.46" stroke="#1e1e1e" stroke-width="2" fill="none"></path></g><g transform="translate(895.254887449019 1011.0350082372324) rotate(0 -90.00141908425735 47.7891268533773)"><path d="M-154.83 92.1 C-159.1 94.56, -168.03 93.02, -179.61 95.46 M-154.83 92.1 C-164 92.46, -174.74 95.37, -179.61 95.46" stroke="#1e1e1e" stroke-width="2" fill="none"></path></g></g><mask></mask><g stroke-linecap="round"><g transform="translate(909.0974691321283 1011.0350082372324) rotate(0 -1.9674202044418507 46.93574958813838)"><path d="M0.88 -1.09 C-0.03 14.6, -3.79 79.2, -4.44 94.98 M-0.12 0.96 C-1.32 16.26, -5.11 77.81, -5.65 93.43" stroke="#1e1e1e" stroke-width="2" fill="none"></path></g><g transform="translate(909.0974691321283 1011.0350082372324) rotate(0 -1.9674202044418507 46.93574958813838)"><path d="M-13.01 69.54 C-11.8 77.91, -5.29 89.5, -5.65 93.43 M-13.01 69.54 C-11.38 76.86, -7.95 82.24, -5.65 93.43" stroke="#1e1e1e" stroke-width="2" fill="none"></path></g><g transform="translate(909.0974691321283 1011.0350082372324) rotate(0 -1.9674202044418507 46.93574958813838)"><path d="M4.07 70.4 C-1.35 78.56, -1.46 89.82, -5.65 93.43 M4.07 70.4 C1.01 77.33, -0.25 82.47, -5.65 93.43" stroke="#1e1e1e" stroke-width="2" fill="none"></path></g></g><mask></mask><g stroke-linecap="round"><g transform="translate(920.2140465014595 1011.8883855024712) rotate(0 88.77336932844605 45.228995057660654)"><path d="M-0.5 1.11 C29.09 16.31, 148.66 75.44, 178.44 90.15 M1.43 0.64 C30.87 16.12, 148.58 76.61, 177.96 91.53" stroke="#1e1e1e" stroke-width="2" fill="none"></path></g><g transform="translate(920.2140465014595 1011.8883855024712) rotate(0 88.77336932844605 45.228995057660654)"><path d="M153.15 88.44 C164.23 91.19, 171.14 91.89, 177.96 91.53 M153.15 88.44 C159.26 88.44, 163.56 89.6, 177.96 91.53" stroke="#1e1e1e" stroke-width="2" fill="none"></path></g><g transform="translate(920.2140465014595 1011.8883855024712) rotate(0 88.77336932844605 45.228995057660654)"><path d="M160.94 73.22 C168.97 81.62, 172.98 88, 177.96 91.53 M160.94 73.22 C165.33 76.47, 167.99 80.84, 177.96 91.53" stroke="#1e1e1e" stroke-width="2" fill="none"></path></g></g><mask></mask><g stroke-linecap="round"><g transform="translate(593 886.75) rotate(0 1 296)"><path d="M-1.06 0.63 C-0.49 99.32, 2.47 493.23, 2.87 591.72" stroke="#1e1e1e" stroke-width="2.5" fill="none" stroke-dasharray="1.5 8"></path></g></g><mask></mask></svg>